<svg id="cpu-svgrepo-com" xmlns="http://www.w3.org/2000/svg" width="496.8" height="496.8" viewBox="0 0 496.8 496.8">
  <path id="Path_1" data-name="Path 1" d="M152,484a12.3,12.3,0,0,1-12,12h0a12.3,12.3,0,0,1-12-12V12A12.3,12.3,0,0,1,140,0h0a12.3,12.3,0,0,1,12,12Z" fill="#eac113"/>
  <path id="Path_2" data-name="Path 2" d="M138.4,0h0C145.6,0,152,5.6,152,12.8V484c0,7.2-6.4,12.8-12.8,12.8h0" fill="#e8a615"/>
  <path id="Path_3" data-name="Path 3" d="M208,484a12.3,12.3,0,0,1-12,12h0a12.3,12.3,0,0,1-12-12V12A12.3,12.3,0,0,1,196,0h0a12.3,12.3,0,0,1,12,12Z" fill="#eac113"/>
  <path id="Path_4" data-name="Path 4" d="M194.4,0h0C200.8,0,208,5.6,208,12.8V484c0,7.2-6.4,12.8-13.6,12.8h0" fill="#e8a615"/>
  <path id="Path_5" data-name="Path 5" d="M312,484a12.3,12.3,0,0,1-12,12h0a12.3,12.3,0,0,1-12-12V12A12.3,12.3,0,0,1,300,0h0a12.3,12.3,0,0,1,12,12Z" fill="#eac113"/>
  <path id="Path_6" data-name="Path 6" d="M301.6,0h0C308,0,312,5.6,312,12.8V484c0,7.2-4.8,12.8-12,12.8h0" fill="#e8a615"/>
  <path id="Path_7" data-name="Path 7" d="M368,484a12.3,12.3,0,0,1-12,12h0a12.3,12.3,0,0,1-12-12V12A12.3,12.3,0,0,1,356,0h0a12.3,12.3,0,0,1,12,12Z" fill="#eac113"/>
  <path id="Path_8" data-name="Path 8" d="M356.8,0h0C364,0,368,5.6,368,12.8V484c0,7.2-4.8,12.8-12,12.8h0" fill="#e8a615"/>
  <path id="Path_9" data-name="Path 9" d="M260,484a12.3,12.3,0,0,1-12,12h0a12.3,12.3,0,0,1-12-12V12A12.3,12.3,0,0,1,248,0h0a12.3,12.3,0,0,1,12,12Z" fill="#eac113"/>
  <path id="Path_10" data-name="Path 10" d="M248.8,0h0C256,0,260,5.6,260,12.8V484c0,7.2-4.8,12.8-12,12.8h0" fill="#e8a615"/>
  <path id="Path_11" data-name="Path 11" d="M12.8,152C5.6,152,0,147.2,0,140H0c0-7.2,5.6-12,12.8-12H484c7.2,0,12.8,4.8,12.8,12h0c0,7.2-5.6,12-12.8,12Z" fill="#eac113"/>
  <path id="Path_12" data-name="Path 12" d="M496,138.4h0c0,7.2-5.6,13.6-12.8,13.6H12.8C5.6,152,0,145.6,0,139.2H0" fill="#e8a615"/>
  <path id="Path_13" data-name="Path 13" d="M496,196a12.3,12.3,0,0,1-12,12H12A12.3,12.3,0,0,1,0,196H0a12.3,12.3,0,0,1,12-12H484a12.3,12.3,0,0,1,12,12Z" fill="#eac113"/>
  <path id="Path_14" data-name="Path 14" d="M496,194.4h0c0,7.2-5.6,13.6-12.8,13.6H12.8C5.6,208,0,201.6,0,194.4H0" fill="#e8a615"/>
  <path id="Path_15" data-name="Path 15" d="M496,300a12.3,12.3,0,0,1-12,12H12A12.3,12.3,0,0,1,0,300H0a12.3,12.3,0,0,1,12-12H484a12.3,12.3,0,0,1,12,12Z" fill="#eac113"/>
  <path id="Path_16" data-name="Path 16" d="M496,301.6h0c0,7.2-5.6,10.4-12.8,10.4H12.8C5.6,312,0,307.2,0,300H0" fill="#e8a615"/>
  <path id="Path_17" data-name="Path 17" d="M496,252a12.3,12.3,0,0,1-12,12H12A12.3,12.3,0,0,1,0,252H0a12.3,12.3,0,0,1,12-12H484a12.3,12.3,0,0,1,12,12Z" fill="#eac113"/>
  <path id="Path_18" data-name="Path 18" d="M496,253.6h0c0,7.2-5.6,10.4-12.8,10.4H12.8C5.6,264,0,259.2,0,252H0" fill="#e8a615"/>
  <path id="Path_19" data-name="Path 19" d="M12.8,368C5.6,368,0,363.2,0,356H0c0-7.2,5.6-12,12.8-12H484c7.2,0,12.8,4.8,12.8,12h0c0,7.2-5.6,12-12.8,12Z" fill="#eac113"/>
  <path id="Path_20" data-name="Path 20" d="M496,356.8h0c0,7.2-5.6,11.2-12.8,11.2H12.8C5.6,368,0,363.2,0,356H0" fill="#e8a615"/>
  <path id="Path_21" data-name="Path 21" d="M408,381.6A26.634,26.634,0,0,1,381.6,408H122.4A26.634,26.634,0,0,1,96,381.6V122.4A26.634,26.634,0,0,1,122.4,96H381.6A26.634,26.634,0,0,1,408,122.4Z" fill="#363f3e"/>
  <path id="Path_22" data-name="Path 22" d="M96,122.4A26.634,26.634,0,0,1,122.4,96H381.6A26.634,26.634,0,0,1,408,122.4V381.6A26.634,26.634,0,0,1,381.6,408"/>
  <path id="Path_23" data-name="Path 23" d="M352,335.2A16.4,16.4,0,0,1,335.2,352H168.8A16.4,16.4,0,0,1,152,335.2V168.8A16.4,16.4,0,0,1,168.8,152H335.2A16.4,16.4,0,0,1,352,168.8Z" fill="#495150"/>
  <path id="Path_24" data-name="Path 24" d="M152,168.8A16.4,16.4,0,0,1,168.8,152H335.2A16.4,16.4,0,0,1,352,168.8V335.2A16.4,16.4,0,0,1,335.2,352" fill="#393f3e"/>
</svg>
