<svg xmlns="http://www.w3.org/2000/svg" width="389.565" height="489.739" viewBox="0 0 389.565 489.739">
  <g id="selfie-stick-svgrepo-com" transform="translate(-94.609 -22.261)">
    <path id="Path_28" data-name="Path 28" d="M391.871,419.7a11.129,11.129,0,0,1-15.74,0L226.823,270.389a33.171,33.171,0,0,1-9.78-23.612V166.956a11.13,11.13,0,1,1,22.26,0v79.821a11.056,11.056,0,0,0,3.26,7.87L391.871,403.954A11.133,11.133,0,0,1,391.871,419.7Z" fill="#636363"/>
    <path id="Path_29" data-name="Path 29" d="M387.819,368.423,474.394,455a33.391,33.391,0,0,1,0,47.222h0a33.391,33.391,0,0,1-47.222,0L340.6,415.645a33.391,33.391,0,0,1,0-47.222h0A33.391,33.391,0,0,1,387.819,368.423Z" fill="#b94b00"/>
    <path id="Path_30" data-name="Path 30" d="M475.668,456.348c-.411.459-.834.909-1.274,1.35h0a33.391,33.391,0,0,1-47.222,0L340.6,371.123c-.441-.441-.864-.892-1.274-1.35.411-.459.834-.909,1.274-1.35h0a33.391,33.391,0,0,1,47.222,0L474.394,455C474.835,455.438,475.258,455.889,475.668,456.348Z" fill="#ea5f00"/>
    <path id="Path_31" data-name="Path 31" d="M194.783,200.348H128a33.39,33.39,0,0,1-33.391-33.391V77.913A33.39,33.39,0,0,1,128,44.522H328.349A33.39,33.39,0,0,1,361.74,77.913v89.043a33.39,33.39,0,0,1-33.391,33.391H194.783Z" fill="#b5af93"/>
    <path id="Path_32" data-name="Path 32" d="M311.653,178.087H144.7a22.26,22.26,0,0,1-22.261-22.261V89.043A22.26,22.26,0,0,1,144.7,66.782H311.653a22.26,22.26,0,0,1,22.261,22.261v66.783A22.262,22.262,0,0,1,311.653,178.087Z" fill="#d3cba9"/>
    <path id="Path_33" data-name="Path 33" d="M261.566,44.522V200.348a22.26,22.26,0,0,1-22.261,22.261H217.044a22.26,22.26,0,0,1-22.261-22.261V44.522a22.26,22.26,0,0,1,22.261-22.261h22.261A22.261,22.261,0,0,1,261.566,44.522Z" fill="#009299"/>
    <path id="Path_34" data-name="Path 34" d="M194.783,183.652V44.522a22.26,22.26,0,0,1,22.261-22.261h16.7a27.7,27.7,0,0,1,5.565,16.7V161.392a27.825,27.825,0,0,1-44.522,22.26Z" fill="#0aa"/>
  </g>
</svg>
